<svg id="visual" viewBox="0 0 900 450" width="900" height="450" xmlns="http://www.w3.org/2000/svg" xmlns:xlink="http://www.w3.org/1999/xlink" version="1.1"><path d="M0 55L13.7 56.5C27.3 58 54.7 61 82 67C109.3 73 136.7 82 163.8 80.5C191 79 218 67 245.2 61.8C272.3 56.7 299.7 58.3 327 62.8C354.3 67.3 381.7 74.7 409 76.2C436.3 77.7 463.7 73.3 491 71.8C518.3 70.3 545.7 71.7 573 71.7C600.3 71.7 627.7 70.3 654.8 71.2C682 72 709 75 736.2 73.5C763.3 72 790.7 66 818 66C845.3 66 872.7 72 886.3 75L900 78L900 0L886.3 0C872.7 0 845.3 0 818 0C790.7 0 763.3 0 736.2 0C709 0 682 0 654.8 0C627.7 0 600.3 0 573 0C545.7 0 518.3 0 491 0C463.7 0 436.3 0 409 0C381.7 0 354.3 0 327 0C299.7 0 272.3 0 245.2 0C218 0 191 0 163.8 0C136.7 0 109.3 0 82 0C54.7 0 27.3 0 13.7 0L0 0Z" fill="#435d4c"></path><path d="M0 100L13.7 101.5C27.3 103 54.7 106 82 110.5C109.3 115 136.7 121 163.8 119.5C191 118 218 109 245.2 103.8C272.3 98.7 299.7 97.3 327 103.3C354.3 109.3 381.7 122.7 409 124.8C436.3 127 463.7 118 491 113.5C518.3 109 545.7 109 573 107.5C600.3 106 627.7 103 654.8 103.8C682 104.7 709 109.3 736.2 108.7C763.3 108 790.7 102 818 105.7C845.3 109.3 872.7 122.7 886.3 129.3L900 136L900 76L886.3 73C872.7 70 845.3 64 818 64C790.7 64 763.3 70 736.2 71.5C709 73 682 70 654.8 69.2C627.7 68.3 600.3 69.7 573 69.7C545.7 69.7 518.3 68.3 491 69.8C463.7 71.3 436.3 75.7 409 74.2C381.7 72.7 354.3 65.3 327 60.8C299.7 56.3 272.3 54.7 245.2 59.8C218 65 191 77 163.8 78.5C136.7 80 109.3 71 82 65C54.7 59 27.3 56 13.7 54.5L0 53Z" fill="#587962"></path><path d="M0 150L13.7 152.2C27.3 154.3 54.7 158.7 82 160.8C109.3 163 136.7 163 163.8 160.8C191 158.7 218 154.3 245.2 155.2C272.3 156 299.7 162 327 168.7C354.3 175.3 381.7 182.7 409 184.2C436.3 185.7 463.7 181.3 491 173.8C518.3 166.3 545.7 155.7 573 151.8C600.3 148 627.7 151 654.8 155.5C682 160 709 166 736.2 164.5C763.3 163 790.7 154 818 158.5C845.3 163 872.7 181 886.3 190L900 199L900 134L886.3 127.3C872.7 120.7 845.3 107.3 818 103.7C790.7 100 763.3 106 736.2 106.7C709 107.3 682 102.7 654.8 101.8C627.7 101 600.3 104 573 105.5C545.7 107 518.3 107 491 111.5C463.7 116 436.3 125 409 122.8C381.7 120.7 354.3 107.3 327 101.3C299.7 95.3 272.3 96.7 245.2 101.8C218 107 191 116 163.8 117.5C136.7 119 109.3 113 82 108.5C54.7 104 27.3 101 13.7 99.5L0 98Z" fill="#779580"></path><path d="M0 249L13.7 257.2C27.3 265.3 54.7 281.7 82 286.2C109.3 290.7 136.7 283.3 163.8 281.2C191 279 218 282 245.2 287.2C272.3 292.3 299.7 299.7 327 306.3C354.3 313 381.7 319 409 310.8C436.3 302.7 463.7 280.3 491 270.7C518.3 261 545.7 264 573 268.5C600.3 273 627.7 279 654.8 280.5C682 282 709 279 736.2 279C763.3 279 790.7 282 818 288.7C845.3 295.3 872.7 305.7 886.3 310.8L900 316L900 197L886.3 188C872.7 179 845.3 161 818 156.5C790.7 152 763.3 161 736.2 162.5C709 164 682 158 654.8 153.5C627.7 149 600.3 146 573 149.8C545.7 153.7 518.3 164.3 491 171.8C463.7 179.3 436.3 183.7 409 182.2C381.7 180.7 354.3 173.3 327 166.7C299.7 160 272.3 154 245.2 153.2C218 152.3 191 156.7 163.8 158.8C136.7 161 109.3 161 82 158.8C54.7 156.7 27.3 152.3 13.7 150.2L0 148Z" fill="#85a08d"></path><path d="M0 397L13.7 394.8C27.3 392.7 54.7 388.3 82 384.7C109.3 381 136.7 378 163.8 376.5C191 375 218 375 245.2 378C272.3 381 299.7 387 327 390C354.3 393 381.7 393 409 390C436.3 387 463.7 381 491 377.2C518.3 373.3 545.7 371.7 573 371.7C600.3 371.7 627.7 373.3 654.8 373.3C682 373.3 709 371.7 736.2 373.8C763.3 376 790.7 382 818 386.5C845.3 391 872.7 394 886.3 395.5L900 397L900 314L886.3 308.8C872.7 303.7 845.3 293.3 818 286.7C790.7 280 763.3 277 736.2 277C709 277 682 280 654.8 278.5C627.7 277 600.3 271 573 266.5C545.7 262 518.3 259 491 268.7C463.7 278.3 436.3 300.7 409 308.8C381.7 317 354.3 311 327 304.3C299.7 297.7 272.3 290.3 245.2 285.2C218 280 191 277 163.8 279.2C136.7 281.3 109.3 288.7 82 284.2C54.7 279.7 27.3 263.3 13.7 255.2L0 247Z" fill="#779580"></path><path d="M0 424L13.7 423.3C27.3 422.7 54.7 421.3 82 419.8C109.3 418.3 136.7 416.7 163.8 414.3C191 412 218 409 245.2 410.5C272.3 412 299.7 418 327 421C354.3 424 381.7 424 409 420.3C436.3 416.7 463.7 409.3 491 406.3C518.3 403.3 545.7 404.7 573 406.2C600.3 407.7 627.7 409.3 654.8 410.2C682 411 709 411 736.2 411C763.3 411 790.7 411 818 412.5C845.3 414 872.7 417 886.3 418.5L900 420L900 395L886.3 393.5C872.7 392 845.3 389 818 384.5C790.7 380 763.3 374 736.2 371.8C709 369.7 682 371.3 654.8 371.3C627.7 371.3 600.3 369.7 573 369.7C545.7 369.7 518.3 371.3 491 375.2C463.7 379 436.3 385 409 388C381.7 391 354.3 391 327 388C299.7 385 272.3 379 245.2 376C218 373 191 373 163.8 374.5C136.7 376 109.3 379 82 382.7C54.7 386.3 27.3 390.7 13.7 392.8L0 395Z" fill="#587962"></path><path d="M0 451L13.7 451C27.3 451 54.7 451 82 451C109.3 451 136.7 451 163.8 451C191 451 218 451 245.2 451C272.3 451 299.7 451 327 451C354.3 451 381.7 451 409 451C436.3 451 463.7 451 491 451C518.3 451 545.7 451 573 451C600.3 451 627.7 451 654.8 451C682 451 709 451 736.2 451C763.3 451 790.7 451 818 451C845.3 451 872.7 451 886.3 451L900 451L900 418L886.3 416.5C872.7 415 845.3 412 818 410.5C790.7 409 763.3 409 736.2 409C709 409 682 409 654.8 408.2C627.7 407.3 600.3 405.7 573 404.2C545.7 402.7 518.3 401.3 491 404.3C463.7 407.3 436.3 414.7 409 418.3C381.7 422 354.3 422 327 419C299.7 416 272.3 410 245.2 408.5C218 407 191 410 163.8 412.3C136.7 414.7 109.3 416.3 82 417.8C54.7 419.3 27.3 420.7 13.7 421.3L0 422Z" fill="#435d4c"></path></svg>