<svg id="visual" viewBox="0 0 900 600" width="900" height="600" xmlns="http://www.w3.org/2000/svg" xmlns:xlink="http://www.w3.org/1999/xlink" version="1.1"><path d="M0 61L13.7 92C27.3 123 54.7 185 82 208C109.3 231 136.7 215 163.8 187C191 159 218 119 245.2 109C272.3 99 299.7 119 327 119C354.3 119 381.7 99 409 101C436.3 103 463.7 127 491 143C518.3 159 545.7 167 573 165C600.3 163 627.7 151 654.8 144C682 137 709 135 736.2 137C763.3 139 790.7 145 818 149C845.3 153 872.7 155 886.3 156L900 157L900 0L886.3 0C872.7 0 845.3 0 818 0C790.7 0 763.3 0 736.2 0C709 0 682 0 654.8 0C627.7 0 600.3 0 573 0C545.7 0 518.3 0 491 0C463.7 0 436.3 0 409 0C381.7 0 354.3 0 327 0C299.7 0 272.3 0 245.2 0C218 0 191 0 163.8 0C136.7 0 109.3 0 82 0C54.7 0 27.3 0 13.7 0L0 0Z" fill="#4c4946"></path><path d="M0 289L13.7 297C27.3 305 54.7 321 82 321C109.3 321 136.7 305 163.8 292C191 279 218 269 245.2 286C272.3 303 299.7 347 327 366C354.3 385 381.7 379 409 371C436.3 363 463.7 353 491 341C518.3 329 545.7 315 573 304C600.3 293 627.7 285 654.8 302C682 319 709 361 736.2 357C763.3 353 790.7 303 818 301C845.3 299 872.7 345 886.3 368L900 391L900 155L886.3 154C872.7 153 845.3 151 818 147C790.7 143 763.3 137 736.2 135C709 133 682 135 654.8 142C627.7 149 600.3 161 573 163C545.7 165 518.3 157 491 141C463.7 125 436.3 101 409 99C381.7 97 354.3 117 327 117C299.7 117 272.3 97 245.2 107C218 117 191 157 163.8 185C136.7 213 109.3 229 82 206C54.7 183 27.3 121 13.7 90L0 59Z" fill="#3a3735"></path><path d="M0 409L13.7 416C27.3 423 54.7 437 82 435C109.3 433 136.7 415 163.8 398C191 381 218 365 245.2 379C272.3 393 299.7 437 327 456C354.3 475 381.7 469 409 459C436.3 449 463.7 435 491 421C518.3 407 545.7 393 573 379C600.3 365 627.7 351 654.8 375C682 399 709 461 736.2 469C763.3 477 790.7 431 818 416C845.3 401 872.7 417 886.3 425L900 433L900 389L886.3 366C872.7 343 845.3 297 818 299C790.7 301 763.3 351 736.2 355C709 359 682 317 654.8 300C627.7 283 600.3 291 573 302C545.7 313 518.3 327 491 339C463.7 351 436.3 361 409 369C381.7 377 354.3 383 327 364C299.7 345 272.3 301 245.2 284C218 267 191 277 163.8 290C136.7 303 109.3 319 82 319C54.7 319 27.3 303 13.7 295L0 287Z" fill="#282624"></path><path d="M0 505L13.7 507C27.3 509 54.7 513 82 519C109.3 525 136.7 533 163.8 532C191 531 218 521 245.2 520C272.3 519 299.7 527 327 529C354.3 531 381.7 527 409 532C436.3 537 463.7 551 491 552C518.3 553 545.7 541 573 529C600.3 517 627.7 505 654.8 512C682 519 709 545 736.2 552C763.3 559 790.7 547 818 540C845.3 533 872.7 531 886.3 530L900 529L900 431L886.3 423C872.7 415 845.3 399 818 414C790.7 429 763.3 475 736.2 467C709 459 682 397 654.8 373C627.7 349 600.3 363 573 377C545.7 391 518.3 405 491 419C463.7 433 436.3 447 409 457C381.7 467 354.3 473 327 454C299.7 435 272.3 391 245.2 377C218 363 191 379 163.8 396C136.7 413 109.3 431 82 433C54.7 435 27.3 421 13.7 414L0 407Z" fill="#232220"></path><path d="M0 601L13.7 601C27.3 601 54.7 601 82 601C109.3 601 136.7 601 163.8 601C191 601 218 601 245.2 601C272.3 601 299.7 601 327 601C354.3 601 381.7 601 409 601C436.3 601 463.7 601 491 601C518.3 601 545.7 601 573 601C600.3 601 627.7 601 654.8 601C682 601 709 601 736.2 601C763.3 601 790.7 601 818 601C845.3 601 872.7 601 886.3 601L900 601L900 527L886.3 528C872.7 529 845.3 531 818 538C790.7 545 763.3 557 736.2 550C709 543 682 517 654.8 510C627.7 503 600.3 515 573 527C545.7 539 518.3 551 491 550C463.7 549 436.3 535 409 530C381.7 525 354.3 529 327 527C299.7 525 272.3 517 245.2 518C218 519 191 529 163.8 530C136.7 531 109.3 523 82 517C54.7 511 27.3 507 13.7 505L0 503Z" fill="#1f1e1c"></path></svg>